# xmcd
#
# Track frame offsets:
#	150
#	15183
#	32214
#	41438
#	52376
#	74358
#	85846
#	99834
#	116510
#	131002
#	142899
#	152970
#
# Disc length: 2216 seconds
#
# Revision: 1
# Processed by: cddbd v1.5.2PL0 Copyright (c) Steve Scherf et al.
# Submitted via: audiograbber 1.83.01
#
DISCID=9a08a60c
DTITLE=Stuart Sim - Fugitive
DYEAR=1985
DGENRE=
TTITLE0=Fugitive
TTITLE1=Sunday Morning Coming Down
TTITLE2=Stranger
TTITLE3=Harvest
TTITLE4=Mary In The Morning
TTITLE5=Tulsa Time
TTITLE6=Leaving Louisana In The Broad Daylight
TTITLE7=So Afraid Of Losing You Again
TTITLE8=Gimme Gimme Good Lovin'
TTITLE9=Unchained Melody
TTITLE10=I'll Have To Say I Love You In A Song
TTITLE11=Loving Her Was Easier
EXTD=Attic Records
EXTT0=
EXTT1=
EXTT2=
EXTT3=
EXTT4=
EXTT5=
EXTT6=
EXTT7=
EXTT8=
EXTT9=
EXTT10=
EXTT11=
PLAYORDER=
